<?xml version="1.0" encoding="UTF-8" standalone="no"?>
<!-- Created with Inkscape (http://www.inkscape.org/) -->

<svg
   xmlns:dc="http://purl.org/dc/elements/1.1/"
   xmlns:cc="http://creativecommons.org/ns#"
   xmlns:rdf="http://www.w3.org/1999/02/22-rdf-syntax-ns#"
   xmlns:svg="http://www.w3.org/2000/svg"
   xmlns="http://www.w3.org/2000/svg"
   xmlns:sodipodi="http://sodipodi.sourceforge.net/DTD/sodipodi-0.dtd"
   xmlns:inkscape="http://www.inkscape.org/namespaces/inkscape"
   width="106.59757mm"
   height="31.476919mm"
   viewBox="0 0 106.59757 31.476919"
   version="1.1"
   id="svg6334"
   inkscape:version="0.92.0 r15299"
   sodipodi:docname="hargreaves lansdown.svg">
  <defs
     id="defs6328" />
  <sodipodi:namedview
     id="base"
     pagecolor="#ffffff"
     bordercolor="#666666"
     borderopacity="1.0"
     inkscape:pageopacity="0.0"
     inkscape:pageshadow="2"
     inkscape:zoom="2.2475066"
     inkscape:cx="199.55447"
     inkscape:cy="57.594176"
     inkscape:document-units="mm"
     inkscape:current-layer="layer1"
     showgrid="false"
     fit-margin-top="0"
     fit-margin-left="0"
     fit-margin-right="0"
     fit-margin-bottom="0"
     inkscape:window-width="1280"
     inkscape:window-height="744"
     inkscape:window-x="-4"
     inkscape:window-y="-4"
     inkscape:window-maximized="1" />
  <metadata
     id="metadata6331">
    <rdf:RDF>
      <cc:Work
         rdf:about="">
        <dc:format>image/svg+xml</dc:format>
        <dc:type
           rdf:resource="http://purl.org/dc/dcmitype/StillImage" />
        <dc:title></dc:title>
      </cc:Work>
    </rdf:RDF>
  </metadata>
  <g
     inkscape:label="Layer 1"
     inkscape:groupmode="layer"
     id="layer1"
     transform="translate(90.596407,-252.79126)">
    <path
       id="path6337"
       d="m -37.887012,271.57316 c -1.007324,-0.81443 -2.400432,-1.15735 -4.522242,-1.15735 h -4.715134 l 0.664405,2.27184 v 10.86624 h 3.857837 c 1.521702,0 2.721918,-0.19289 3.622081,-0.62154 2.014648,-0.90016 2.957675,-2.80765 2.957675,-5.97965 0,-2.63619 -0.578676,-4.35078 -1.864622,-5.37954 z m -2.078945,9.53743 c -0.600108,0.38579 -1.50027,0.60011 -2.571892,0.60011 h -1.478837 v -9.47313 h 1.243081 c 1.371675,0 2.314702,0.21432 2.91481,0.64297 0.921594,0.64297 1.285946,1.80032 1.285946,4.0293 0.02143,2.29327 -0.407216,3.53635 -1.393108,4.20075 z m 27.79786,-1.67173 c -0.02143,0.10717 -0.0643,0.23576 -0.08573,0.36435 -0.02143,-0.10716 -0.0643,-0.23575 -0.107162,-0.36435 l -2.614756,-9.04448 h -2.336135 l 0.70727,2.35757 -2.100378,6.77264 c -0.02143,0.0857 -0.04287,0.15003 -0.0643,0.23576 -0.02143,-0.10716 -0.04287,-0.19289 -0.08573,-0.30005 l -2.657621,-9.08735 h -2.421864 l 3.922134,13.11664 h 2.186108 l 2.228972,-7.32989 2.121811,7.32989 h 2.271837 l 3.7935397,-13.11664 h -2.3146985 z m -61.896854,-9.04448 h -3.857838 l 0.664406,2.22897 -3.579216,10.88768 h 2.421865 l 0.900162,-2.80765 h 4.715134 l 0.964459,2.80765 h 2.507594 z m -2.807649,8.31578 1.543135,-4.8223 c 0.04286,-0.0857 0.0643,-0.21432 0.08573,-0.32148 0.02143,0.12859 0.0643,0.23575 0.107162,0.34292 l 1.67173,4.80086 z m 47.579992,-8.48724 c -3.514918,0 -5.443837,2.40043 -5.443837,6.72978 0,4.35078 1.928919,6.72978 5.443837,6.72978 3.514919,0 5.443837,-2.40043 5.443837,-6.72978 0,-4.32935 -1.928918,-6.72978 -5.443837,-6.72978 z m 0,11.55208 c -1.243081,0 -2.91481,-0.49295 -2.91481,-4.80087 0,-4.30791 1.671729,-4.80086 2.91481,-4.80086 1.243081,0 2.914811,0.49295 2.914811,4.80086 0,4.30792 -1.650297,4.80087 -2.914811,4.80087 z m -60.160828,-11.35919 v 13.11665 h 7.522783 l 0.600108,-1.82176 h -5.679594 v -11.29489 z m 29.126671,8.76586 c -0.107162,-0.19289 -0.235756,-0.38578 -0.407216,-0.62154 l -5.851053,-8.16575 h -2.357567 l 0.664405,2.2504 v 10.88768 h 2.143243 v -8.76587 c 0.107162,0.1929 0.214325,0.38579 0.364352,0.57868 l 5.851053,8.16576 h 1.736026 v -13.13808 h -2.143243 z m 61.9397197,0.0214 c -0.107163,-0.19289 -0.235757,-0.38578 -0.407217,-0.62154 l -5.851053,-8.16575 h -1.693161 v 13.13808 h 2.143242 v -8.76587 c 0.107163,0.1929 0.214325,0.38579 0.364352,0.57868 l 5.851053,8.16576 h 1.736027 V 270.39438 H 0.92711668 l 0.66440502,2.2504 z m -53.2381527,-3.36488 c -1.350243,-0.47152 -2.529027,-0.90017 -2.529027,-2.10038 0,-1.41454 1.521702,-1.62887 2.421864,-1.62887 0.814433,0 1.693162,0.15003 2.529027,0.45008 l 0.600108,-1.80032 -0.128595,-0.0429 c -0.835864,-0.27862 -2.12181,-0.47151 -3.129134,-0.47151 -2.850513,0 -4.629405,1.43597 -4.629405,3.7721 0,2.63619 1.993216,3.32203 3.750675,3.94357 1.393108,0.49295 2.593324,0.92159 2.593324,2.18611 0,1.09305 -0.921594,1.73602 -2.507594,1.73602 -1.007324,0 -2.186108,-0.30005 -3.150567,-0.77156 l -0.621541,1.86462 0.107163,0.0429 c 1.114486,0.47151 2.443297,0.75013 3.729242,0.75013 1.607432,0 2.893378,-0.40721 3.70781,-1.17878 0.685838,-0.66441 1.050189,-1.56457 1.050189,-2.63619 0.02143,-2.78621 -2.014648,-3.49349 -3.793539,-4.11503 m -20.017889,-22.35403 h -3.857837 l 0.664405,2.25041 -3.579215,10.9091 h 2.421864 l 0.900162,-2.80764 h 4.715134 l 0.96446,2.80764 h 2.507594 z m -2.829081,8.33722 1.543135,-4.8223 c 0.04287,-0.0857 0.0643,-0.21432 0.08573,-0.34292 0.02143,0.1286 0.0643,0.23576 0.107162,0.34292 l 1.67173,4.8223 z m 57.396045,-8.33722 h -3.857837 l 0.664405,2.25041 -3.579216,10.9091 h 2.421865 l 0.900162,-2.80764 h 4.715134 l 0.964459,2.80764 h 2.507594 z m -2.807648,8.33722 1.543134,-4.8223 c 0.04286,-0.0857 0.0643,-0.21432 0.08573,-0.34292 0.02143,0.1286 0.0643,0.23576 0.107162,0.34292 l 1.67173,4.8223 z m 12.6236997,4.82229 3.900702,-13.15951 h -2.421864 l -2.486162,9.23738 -0.128595,0.45008 -0.128594,-0.45008 -3.1291347,-9.23738 h -2.550459 l 4.4793782,13.15951 z m -41.9432627,-6.55832 0.514378,1.73603 h 1.328811 v 2.35756 c -0.685838,0.49295 -1.393108,0.70727 -2.228973,0.70727 -2.164675,0 -3.214864,-1.62886 -3.214864,-4.97232 0,-3.02197 1.071621,-4.6937 3.00054,-4.6937 1.264513,0 1.971783,0.62154 2.336135,2.03608 l 0.04286,0.15003 2.464729,-0.42865 -0.02143,-0.17146 c -0.428646,-2.22897 -2.164673,-3.51492 -4.757997,-3.51492 -3.53635,0 -5.572431,2.46473 -5.572431,6.75122 0,4.37221 1.907486,6.77264 5.379539,6.77264 1.264514,0 2.314703,-0.30005 3.150567,-0.92159 l 0.428649,0.7287 h 1.435973 v -6.53689 z m -7.308458,4.71513 c -0.407216,0 -0.750135,-0.15002 -1.028757,-0.62154 l 0.192892,0.34292 -0.214324,-0.36435 -0.04286,-0.0857 -1.028757,-1.84319 -0.428648,-0.77157 c 1.736026,-0.57867 2.657621,-1.92891 2.657621,-3.96499 0,-1.35025 -0.492946,-2.42187 -1.435973,-3.08627 -0.857297,-0.62154 -2.036081,-0.90017 -3.814972,-0.90017 h -4.843729 l 0.664405,2.27184 v 10.88768 h 2.443297 v -4.84373 h 1.843189 l 0.492946,0.85729 0.342919,0.60011 1.007324,1.7146 c 0.728702,1.22165 1.350243,1.82175 2.443297,1.82175 0.471513,0 0.857297,-0.12859 1.264513,-0.27862 v -1.82175 c -0.192892,0.0429 -0.364351,0.0857 -0.514378,0.0857 z m -4.993756,-4.71513 h -1.907486 v -4.758 h 1.564567 c 1.200216,0 1.950351,0.17146 2.379,0.57868 0.385783,0.36435 0.578675,0.96446 0.578675,1.71459 0,1.67173 -0.835865,2.46473 -2.614756,2.46473 z m 27.562103,4.71513 c -0.407216,0 -0.750135,-0.15002 -1.028756,-0.62154 l 0.192892,0.34292 -0.214325,-0.36435 -0.04287,-0.0857 -1.028756,-1.84319 -0.428649,-0.77157 c 1.736032,-0.57867 2.657626,-1.92891 2.657626,-3.96499 0,-1.35025 -0.492945,-2.42187 -1.435972,-3.08627 -0.857297,-0.62154 -2.036081,-0.90017 -3.814973,-0.90017 h -4.843729 l 0.664406,2.27184 v 10.88768 h 2.443297 v -4.84373 h 1.843189 l 0.492945,0.85729 0.342919,0.60011 1.007324,1.7146 c 0.728703,1.22165 1.350243,1.82175 2.443297,1.82175 0.471514,0 0.857297,-0.12859 1.264514,-0.27862 v -1.82175 c -0.17146,0.0429 -0.342919,0.0857 -0.514379,0.0857 z m -4.972323,-4.71513 h -1.907486 v -4.758 h 1.564567 c 1.200216,0 1.950351,0.17146 2.379,0.57868 0.385783,0.36435 0.578675,0.96446 0.578675,1.71459 -0.02143,1.67173 -0.835865,2.46473 -2.614756,2.46473 z m -43.100615,-6.60119 v 5.6153 h -4.972323 v -5.6153 h -3.107703 l 0.664406,2.27184 v 10.88767 h 2.443297 v -5.551 h 4.972323 v 5.551 h 2.443297 v -13.15951 z m 93.72401,5.46527 c -1.35024,-0.47151 -2.5290253,-0.90016 -2.5290253,-2.10038 0,-1.41454 1.5217053,-1.62886 2.4218653,-1.62886 0.81443,0 1.69316,0.15003 2.52903,0.45008 l 0.6001,-1.80032 -0.12859,-0.0429 c -0.83587,-0.27862 -2.12181,-0.47151 -3.12914,-0.47151 -2.8505083,0 -4.6294003,1.43597 -4.6294003,3.7721 0,2.63619 1.993216,3.34346 3.7506803,3.965 1.3931,0.49295 2.59332,0.9216 2.59332,2.18611 0,1.11449 -0.9216,1.73603 -2.5076,1.73603 -1.0073193,0 -2.1861033,-0.30005 -3.1505623,-0.77157 l -0.62154,1.86462 0.107162,0.0429 c 1.114486,0.47152 2.443297,0.75014 3.7292403,0.75014 1.60743,0 2.89338,-0.40722 3.70781,-1.17879 0.68584,-0.6644 1.05019,-1.56456 1.05019,-2.65762 0,-2.78621 -2.01465,-3.49348 -3.79354,-4.11502 m -13.9953743,-5.4867 v 13.18094 h 7.651377 l 0.600108,-1.84319 H 0.13411668 v -3.94356 H 4.5920617 l 0.535811,-1.80033 H 0.13411668 v -3.7721 H 5.6636837 l 0.53581,-1.82176 z m -29.4695897,0 v 13.18094 h 6.836945 l 0.600108,-1.84319 h -5.015189 v -3.94356 h 4.457946 l 0.514378,-1.80033 h -4.972324 v -3.7721 h 5.529567 l 0.535811,-1.82176 z"
       inkscape:connector-curvature="0"
       style="fill:#071d49;stroke-width:0.21432428" />
  </g>
</svg>
